<svg id="Layer_1" data-name="Layer 1" xmlns="http://www.w3.org/2000/svg" viewBox="0 0 28 32"><defs><style>.cls-1{fill:#272626;}.cls-2{fill:#fff;}</style></defs><polygon points="25.38 28.89 14 32 2.63 28.89 0 0 28 0 25.38 28.89"/><polygon class="cls-1" points="14 2 14 29.75 23.23 27.01 25.69 2 14 2"/><polygon class="cls-2" points="22.36 6 5.61 6 6 10 14 10 6.25 12.99 6.62 17 17.5 17 17.16 21 14 21.99 10.86 20.98 10.53 19 6.8 19 7.26 23.99 14 25.99 20.73 23.99 21.72 12.99 14.03 12.99 22 10 22.36 6"/></svg>