<svg id="Layer_1" data-name="Layer 1" xmlns="http://www.w3.org/2000/svg" xmlns:xlink="http://www.w3.org/1999/xlink" viewBox="0 0 24 24"><defs><style>.cls-1{fill:#010101;opacity:0.1;}.cls-1,.cls-3{isolation:isolate;}.cls-2{fill:#fff;}.cls-3{fill:#fff5d0;opacity:0.2;}.cls-4{fill:url(#linear-gradient);}.cls-5{fill:url(#linear-gradient-2);}</style><linearGradient id="linear-gradient" x1="9.67" y1="16.32" x2="18.31" y2="7.69" gradientTransform="matrix(1, 0, 0, -1, 0, 26)" gradientUnits="userSpaceOnUse"><stop offset="0" stop-color="#010101" stop-opacity="0.1"/><stop offset="1" stop-color="#010101" stop-opacity="0"/></linearGradient><linearGradient id="linear-gradient-2" x1="2.01" y1="18.66" x2="21.98" y2="9.35" gradientTransform="matrix(1, 0, 0, -1, 0, 26)" gradientUnits="userSpaceOnUse"><stop offset="0" stop-color="#fff" stop-opacity="0.2"/><stop offset="1" stop-color="#fff" stop-opacity="0"/></linearGradient></defs><path d="M23.56,10.93h0L13.06.43a1.53,1.53,0,0,0-2.12,0L.44,10.93A1.52,1.52,0,0,0,0,12a1.5,1.5,0,0,0,.44,1.06l10.5,10.51a1.5,1.5,0,0,0,2.12,0l10.5-10.51A1.5,1.5,0,0,0,24,12,1.52,1.52,0,0,0,23.56,10.93Z" transform="translate(0 0)"/><path class="cls-1" d="M23.68,12.69,13.07,23.31a1.52,1.52,0,0,1-2.14,0L.32,12.69A1.5,1.5,0,0,1,0,12.27a1.41,1.41,0,0,0,.41.78l10.5,10.51a1.5,1.5,0,0,0,2.12,0l10.5-10.51a1.41,1.41,0,0,0,.41-.78A1.5,1.5,0,0,1,23.68,12.69Z" transform="translate(0 0)"/><path class="cls-2" d="M17,10a2,2,0,0,0-1,.29L13.71,8A2,2,0,0,0,14,7a2,2,0,0,0-2-2,2,2,0,0,0-1,.28L8.54,2.83l-.71.71L10.28,6A2,2,0,0,0,10,7a2,2,0,0,0,1.5,1.93v6.14a2,2,0,1,0,1,0V8.93a2.21,2.21,0,0,0,.5-.21L15.28,11A2,2,0,0,0,15,12a2,2,0,1,0,2-2Z" transform="translate(0 0)"/><path class="cls-3" d="M.44,11.18,10.94.68a1.53,1.53,0,0,1,2.12,0l10.5,10.5h0a1.54,1.54,0,0,1,.43.94S24,12,24,12a1.52,1.52,0,0,0-.44-1.06h0L13.06.43a1.53,1.53,0,0,0-2.12,0L.44,10.93A1.52,1.52,0,0,0,0,12s0,.09,0,.13A1.54,1.54,0,0,1,.44,11.18Z" transform="translate(0 0)"/><path class="cls-4" d="M18.55,10.75A2,2,0,0,1,19,12a2,2,0,0,1-4,0,2,2,0,0,1,.28-1L13,8.72a2.21,2.21,0,0,1-.5.21v6.14a2,2,0,1,1-1.83,3.41l3.73,3.74,7.81-7.81ZM13.71,8,16,10.29A2,2,0,0,1,17,10a2,2,0,0,1,1.25.45L13.57,5.77h0A2,2,0,0,1,14,7,2,2,0,0,1,13.71,8Z" transform="translate(0 0)"/><path class="cls-5" d="M23.56,10.93h0L13.06.43a1.53,1.53,0,0,0-2.12,0L.44,10.93A1.52,1.52,0,0,0,0,12a1.5,1.5,0,0,0,.44,1.06l10.5,10.51a1.5,1.5,0,0,0,2.12,0l10.5-10.51A1.5,1.5,0,0,0,24,12,1.52,1.52,0,0,0,23.56,10.93Z" transform="translate(0 0)"/></svg>