<svg id="Layer_1" data-name="Layer 1" xmlns="http://www.w3.org/2000/svg" viewBox="0 0 474.03 476.64"><defs><style>.cls-1{fill:#fff;}</style></defs><path d="M194,240.25H299.06c29.22,0,52.53-24.1,52.53-53.41V86.6c0-28.52-24-49.87-52.53-54.69-35.21-5.8-73.48-5.51-105,.1-44.47,7.87-52.53,24.3-52.53,54.69v21.45H246.63v32H102c-30.59,0-57.35,18.4-65.71,53.32-9.64,40-10,65,0,106.83,7.48,31.08,25.28,53.31,55.87,53.31H128.3v-48c0-34.72,30-65.32,65.71-65.32Z" transform="translate(-18.99 -17.68)"/><path d="M128.3,363.57H92.19c-32.84,0-56.13-21.66-65.59-61-10.15-42.27-10.15-69.37,0-111.5,4.52-18.89,14.24-34.56,28.11-45.32,13.21-10.24,29.57-15.66,47.32-15.66h134.6v-12H141.48a10,10,0,0,1-10-10V86.7c0-14,1.42-29.89,12-42.28,9.45-11.09,24.5-18,48.8-22.26a313.93,313.93,0,0,1,53.83-4.48,336.46,336.46,0,0,1,54.6,4.37c16.34,2.76,31.38,10.3,42.38,21.23C355,55.14,361.59,70.53,361.59,86.6V186.84c0,35-28,63.41-62.53,63.41H194c-29.68,0-55.71,25.85-55.71,55.32v48A10,10,0,0,1,128.3,363.57ZM102,150.11c-28.21,0-49.14,17.07-56,45.65-9.53,39.56-9.53,62.47,0,102.16,5,20.82,17.08,45.65,46.14,45.65H118.3v-38c0-19.27,8.15-38.49,22.38-52.75,14.53-14.55,33.47-22.57,53.32-22.57H299.06c23.45,0,42.53-19.47,42.53-43.41V86.6c0-24.53-22.24-41.12-44.2-44.83a316.93,316.93,0,0,0-51.3-4.09,293.6,293.6,0,0,0-50.34,4.17c-39.9,7.07-44.27,19.69-44.27,44.85V98.15h95.15a10,10,0,0,1,10,10v32a10,10,0,0,1-10,10Z" transform="translate(-18.99 -17.68)"/><path d="M475,209.37C467.4,179,453,156.06,422.45,156.06H383v46.62c0,36.2-30.7,66.69-65.71,66.69H212.24c-28.72,0-52.53,24.6-52.53,53.42V422.93c0,28.52,24.79,45.24,52.53,53.41,33.25,9.74,65.22,11.51,105.05,0,26.47-7.68,52.53-23.12,52.53-53.41v-21H264.87V369.51H422.45c30.59,0,41.9-21.34,52.52-53.31,11-33,10.53-64.63,0-106.83Z" transform="translate(-18.99 -17.68)"/><path d="M264.43,494.32c-17.75,0-35.74-2.74-55-8.39-38.52-11.33-59.72-33.71-59.72-63V322.79c0-34.38,28.64-63.42,62.53-63.42H317.29c29.68,0,55.71-26.49,55.71-56.69V156.06a10,10,0,0,1,10-10h39.45c17.27,0,31.54,6.28,42.41,18.66,8.73,10,15.22,23.77,19.82,42.23,11.19,44.87,11.12,78.49-.22,112.42-10.11,30.42-23.23,60.14-62,60.14H274.87v12.42h94.95a10,10,0,0,1,10,10v21c0,20.84-10.36,48.69-59.74,63C300.56,491.58,282.36,494.32,264.43,494.32ZM212.24,279.37c-23.05,0-42.53,19.89-42.53,43.42V422.93c0,26.51,28.42,38.83,45.36,43.82,17.63,5.16,33.33,7.57,49.36,7.57s32.41-2.48,50.09-7.59c30.06-8.72,45.3-23.46,45.3-43.8v-11H264.87a10,10,0,0,1-10-10V369.51a10,10,0,0,1,10-10H422.45c21.15,0,31.2-10.86,43-46.47,10.19-30.47,10.13-59.8-.21-101.25-7.88-31.63-21.09-45.73-42.82-45.73H393v36.62c0,41.57-34.67,76.69-75.71,76.69Z" transform="translate(-18.99 -17.68)"/><path class="cls-1" d="M187.41,89.59a19.21,19.21,0,1,1,19-19.16A19.07,19.07,0,0,1,187.41,89.59Z" transform="translate(-18.99 -17.68)"/><path class="cls-1" d="M314.91,460.08a19.22,19.22,0,1,1,19-19.17A19.09,19.09,0,0,1,314.91,460.08Z" transform="translate(-18.99 -17.68)"/></svg>